<?xml version="1.0" encoding="utf-8" ?>
<svg xmlns="http://www.w3.org/2000/svg" xmlns:xlink="http://www.w3.org/1999/xlink" width="1024" height="1024">
	<path fill="#CE6825" transform="scale(2 2)" d="M255.05 75.3578C265.619 75.0434 276.118 76.1349 286.513 77.9295C293.822 79.1913 301.048 80.696 308.152 82.8548C313.916 84.6064 319.49 86.8036 325.055 89.0953L333.334 92.5777C339.305 95.4436 345.113 98.8087 350.75 102.278C360.023 107.984 368.716 114.221 376.759 121.578C384.08 128.274 391.117 135.491 397.31 143.249C420.288 172.04 433.614 209.508 435.184 246.202C435.856 261.922 434.702 277.837 431.415 293.235C424.786 324.285 409.013 352.849 387.625 376.123C360.591 405.541 323.281 425.527 283.875 431.986C275.165 433.413 266.308 433.832 257.503 434.204C236.47 434.368 215.428 431.239 195.625 423.982C174.46 416.225 154.335 403.865 137.53 388.872C102.114 357.274 79.1986 311.323 76.5383 263.799C75.4318 244.032 77.5393 223.339 83.0875 204.293C90.5583 178.647 104.299 154.616 122.107 134.782C144.637 109.691 175.518 90.0444 208.274 81.6663C223.691 77.7232 239.208 76.1909 255.05 75.3578ZM252.16 111.107C241.785 111.808 231.873 112.834 221.712 115.213C215.384 116.694 209.017 118.956 203 121.375C180.694 130.342 161.634 144.361 145.833 162.402C140.971 167.952 136.778 174.184 132.987 180.5C118.373 204.844 110.925 234.746 112.854 263.127C115.465 301.554 133.286 337.526 162.44 362.79C181.994 379.735 207.469 392.312 233.116 396.335C240.832 397.545 248.67 397.797 256.459 398.047C245.409 390.283 236.087 379.872 233.678 366.162C233.086 362.789 233.137 359.188 233.114 355.77L233.106 341.249L233.023 295.647C232.958 288.959 233.421 281.385 231.82 274.884C230.681 270.257 228.643 266.418 225.726 262.675C222.583 258.642 218.873 255.124 215.224 251.559L202.096 238.698L157.525 194.996L147.354 185.062C144.747 182.506 141.309 179.849 139.68 176.572L139.534 176.291L179.75 176.002C182.362 176.101 185.336 175.861 187.853 176.569C189.991 177.171 191.834 178.927 193.527 180.306L199.375 184.947L232.476 210.7C236.857 214.09 241.173 218.21 245.851 221.118C248.504 222.767 251.147 223.85 254.25 224.298L254.661 224.363C256.221 224.589 257.833 224.361 259.383 224.123C261.76 223.398 263.893 222.545 266 221.207C271.551 217.681 276.599 212.989 281.796 208.944L314.261 183.835L320.04 179.36C321.426 178.271 323.037 176.861 324.766 176.394C327.22 175.732 330.166 176.026 332.709 176.021L348.001 175.982L361.468 175.763C365.336 175.788 369.323 175.909 373.051 176.996C371.03 179.883 367.972 182.295 365.411 184.714L356.49 193.375L311.14 237.86L297.133 251.495C294.073 254.447 290.794 257.349 287.98 260.531C285.572 263.254 283.64 266.006 282.084 269.287C280.488 272.656 279.654 276.183 279.236 279.875C278.31 288.049 278.872 296.724 278.898 304.95L278.865 346.368C278.842 355.664 279.648 365.971 275.875 374.703C271.958 383.768 263.976 391.381 256.97 398.133L257.393 398.062C260.272 397.594 263.199 397.798 266.102 397.53C273.258 396.868 280.356 395.927 287.397 394.464C291.073 393.701 294.607 392.601 298.193 391.514C320.122 384.866 339.504 372.845 355.837 356.823C361.141 351.62 366.29 345.976 370.682 339.974C376.721 331.723 382.196 322.853 386.5 313.567C398.377 287.943 402.036 259.858 397.835 232C392.452 196.302 371.207 160.486 341.919 139.228C319.679 123.085 292.231 112.768 264.744 111.307C260.694 111.092 256.17 110.559 252.16 111.107Z"/>
</svg>
