<svg width="1200" height="276" viewBox="0 0 1200 276" fill="none" xmlns="http://www.w3.org/2000/svg"><path d="M21.7349 244.855L73.0889 3.89624H90.4555L99.2986 27.2921L45.4941 272.12H25.8901L21.7349 244.855ZM35.479 3.89624L38.6753 252.408L31.1107 272.12H7.67114L0 3.89624H35.479ZM95.6761 245.592L142.342 3.89624H179.1L122.845 272.12H100.364L95.6761 245.592ZM104.093 3.89624L112.83 252.224L105.478 272.12H85.2348L74.7936 21.9498L85.4479 3.89624H104.093Z" fill="black"/><path d="M247.82 63.3992L190.713 272.12H150.333L232.585 3.89624H258.368L247.82 63.3992ZM257.622 272.12L241.854 56.9515L242.706 3.89624H266.998L295.658 272.12H257.622ZM265.933 172.089L260.819 222.012H183.361L188.476 172.089H265.933Z" fill="black"/><path d="M344.775 3.89624L360.756 119.955L400.071 3.89624H440.984L374.181 178.721L364.912 272.12H327.728L337.743 172.641L306.632 4.08046L344.775 3.89624Z" fill="black"/><path d="M595.898 110.375L590.891 160.114H513.433L518.441 110.375H595.898ZM541.454 3.89624L514.499 272.12H478.061L504.91 3.89624H541.454ZM630.951 3.89624L603.995 272.12H567.664L594.513 3.89624H630.951Z" fill="black"/><path d="M735.364 3.89624H771.801L754.541 178.905C752.837 199.415 748.966 216.977 742.928 231.592C736.962 246.206 729.255 257.321 719.808 264.935C710.361 272.55 699.672 276.234 687.739 275.988C676.658 275.62 666.963 271.506 658.652 263.646C650.413 255.786 644.233 244.671 640.114 230.302C635.994 215.933 634.609 198.862 635.958 179.089L653.219 3.89624H689.763L672.609 179.273C672.041 187.379 672.077 194.932 672.716 201.932C673.426 208.933 675.131 214.643 677.83 219.065C680.529 223.486 684.578 225.819 689.976 226.065C695.729 226.433 700.524 224.591 704.359 220.538C708.266 216.486 711.32 210.836 713.522 203.59C715.795 196.344 717.322 188.177 718.104 179.089L735.364 3.89624Z" fill="black"/><path d="M850.004 63.3992L792.897 272.12H752.517L834.769 3.89624H860.552L850.004 63.3992ZM859.806 272.12L844.038 56.9515L844.89 3.89624H869.182L897.843 272.12H859.806ZM868.117 172.089L863.003 222.012H785.546L790.66 172.089H868.117Z" fill="black"/><path d="M1062.13 3.89624L1035.18 272.12H999.805L962.834 102.822L945.787 272.12H909.349L936.198 3.89624H971.784L1008.75 173.194L1025.69 3.89624H1062.13Z" fill="black"/><path d="M1195.74 128.797L1185.72 239.145C1180.96 248.724 1175 256.216 1167.82 261.619C1160.65 266.9 1153.12 270.585 1145.24 272.673C1137.42 274.883 1130.07 275.866 1123.18 275.62C1112.39 275.374 1103.19 271.69 1095.59 264.567C1088.06 257.444 1082.06 247.803 1077.58 235.644C1073.11 223.486 1070.09 209.669 1068.53 194.195C1066.96 178.721 1066.79 162.509 1067.99 145.561L1069.16 130.824C1070.51 113.384 1073.14 96.8043 1077.05 81.0842C1081.03 65.2413 1086.18 51.1793 1092.5 38.898C1098.82 26.6167 1106.31 16.9758 1114.98 9.97549C1123.71 2.97515 1133.59 -0.340806 1144.6 0.0276329C1156.03 0.273259 1165.73 4.01906 1173.68 11.265C1181.71 18.3882 1187.93 28.7045 1192.33 42.2139C1196.73 55.7233 1199.29 72.2417 1200 91.769L1165.16 91.5847C1164.81 83.4791 1163.92 76.3559 1162.5 70.2153C1161.15 63.9518 1158.98 59.0393 1156 55.4777C1153.01 51.9161 1148.93 49.9511 1143.75 49.5827C1137.49 49.0914 1132.17 51.3635 1127.76 56.3988C1123.36 61.3113 1119.67 67.8818 1116.68 76.1103C1113.77 84.3388 1111.46 93.2427 1109.76 102.822C1108.12 112.402 1106.95 121.551 1106.24 130.271L1105.07 145.745C1104.5 153.974 1104.15 162.693 1104 171.904C1103.93 181.115 1104.54 189.774 1105.82 197.879C1107.09 205.985 1109.4 212.617 1112.74 217.775C1116.15 222.933 1121.02 225.635 1127.34 225.881C1130.11 226.004 1132.77 225.697 1135.33 224.96C1137.96 224.223 1140.48 223.056 1142.89 221.46C1145.38 219.74 1147.76 217.591 1150.03 215.012L1154.83 173.194H1129.57L1134.05 128.797H1195.74Z" fill="black"/></svg>